<?xml version="1.0" encoding="utf-8"?>
<!-- Generator: Adobe Illustrator 21.1.0, SVG Export Plug-In . SVG Version: 6.00 Build 0)  -->
<!DOCTYPE svg PUBLIC "-//W3C//DTD SVG 1.1//EN" "http://www.w3.org/Graphics/SVG/1.1/DTD/svg11.dtd">
<svg version="1.1" id="Layer_1" xmlns="http://www.w3.org/2000/svg" xmlns:xlink="http://www.w3.org/1999/xlink" x="0px" y="0px"
	 viewBox="0 0 743 98.7" style="enable-background:new 0 0 743 98.7;" xml:space="preserve">
<style type="text/css">
	.st0{fill:#747678;}
	.st1{fill:#D52B1E;}
</style>
<g>
	<polygon class="st0" points="431.8,4.8 420.3,52.4 406.1,4.8 390.7,4.8 376.5,52.3 387.8,83.7 398.4,50.5 412.6,94.9 430.3,94.9 
		454.5,4.8 	"/>
	<g>
		<path class="st1" d="M64.3,85.6c-7.6,8-16,10.1-25.6,10.1c-10.3,0-18.1-3.5-24.5-10.1c-9.3-9.5-8.9-22.2-8.9-35.7
			c0-13.6-0.4-26.2,8.9-35.7C20.5,7.6,28,4.1,38.6,4.1c22.7,0,32.3,15.1,34.4,29.9H51.3c-1.7-6.8-5.2-10.1-12.6-10.1
			c-4,0-6.9,1.8-8.5,3.9c-2,2.7-3.2,5.7-3.2,22.2c0,16.5,1.2,19.6,3.2,22.3c1.6,2.1,4.6,3.8,8.5,3.8c4.6,0,7.7-1.4,9.7-3.5
			c2.5-2.5,3.3-6.2,3.3-9.6v-1.3h-13V43h34.6v12.5C73.2,70.1,70.9,78.6,64.3,85.6"/>
		<path class="st1" d="M195.1,24.7h-12.3v18.2h12.3c6,0,9.4-4.4,9.4-9.1C204.5,29.1,201,24.7,195.1,24.7 M205.7,94.9l-15.6-33.6
			h-7.3v33.6h-21.7V4.8h34.9c19.6,0,30.1,14.2,30.1,29c0,12.3-7.4,20-14.4,23.5l19.1,37.6H205.7z"/>
		<path class="st1" d="M279.6,29.6c-2-3-5-5.1-10.4-5.1h-9.5v50.6h9.5c5.4,0,8.4-2,10.4-5.1c1.7-2.5,2.4-4.9,2.4-20.3
			C281.9,34.7,281.3,32.1,279.6,29.6 M294.4,86.1c-6.1,6.2-14.6,8.9-23.8,8.9H238V4.8h32.7c9.2,0,17.7,2.7,23.8,8.9
			c10.3,10.5,9.2,22,9.2,36.2C303.6,64.1,304.7,75.6,294.4,86.1"/>
		<path class="st0" d="M713.3,29.6c-2-3-4.9-5.1-10.4-5.1h-9.5v50.6h9.5c5.5,0,8.4-2,10.4-5.1c1.7-2.5,2.4-4.9,2.4-20.3
			C715.7,34.7,715.1,32.1,713.3,29.6 M728.2,86.1c-6.1,6.2-14.6,8.9-23.8,8.9h-32.7V4.8h32.7c9.2,0,17.7,2.7,23.8,8.9
			c10.3,10.5,9.2,22,9.2,36.2C737.4,64.1,738.5,75.6,728.2,86.1"/>
		<path class="st0" d="M496.8,27.7c-1.6-2.1-4.7-3.9-8.6-3.9c-4,0-7.1,1.8-8.7,3.9c-2,2.7-3.2,5.7-3.2,22.2c0,16.5,1.2,19.3,3.2,22
			c1.6,2.1,4.7,4,8.7,4c4,0,7-1.9,8.6-4c2-2.7,3.2-5.6,3.2-22C500,33.4,498.8,30.4,496.8,27.7 M512.8,85.6
			c-6.5,6.6-13.9,10.1-24.7,10.1c-10.8,0-18.2-3.5-24.7-10.1c-9.3-9.5-8.9-22.2-8.9-35.7c0-13.6-0.4-26.2,8.9-35.7
			c6.5-6.6,13.9-10.1,24.7-10.1c10.8,0,18.2,3.5,24.7,10.1c9.3,9.5,8.9,22.1,8.9,35.7C521.7,63.4,522,76.1,512.8,85.6"/>
		<path class="st0" d="M562.8,24.7h-12.2v18.2h12.2c6,0,9.4-4.4,9.4-9.1C572.2,29.1,568.7,24.7,562.8,24.7 M573.4,94.9l-15.6-33.6
			h-7.3v33.6h-21.7V4.8h34.9c19.6,0,30.1,14.2,30.1,29c0,12.3-7.4,20-14.4,23.5l19.1,37.6H573.4z"/>
	</g>
	<polygon class="st0" points="605.8,94.9 605.8,4.8 627.5,4.8 627.5,75.2 664.5,75.2 664.5,94.9 	"/>
	<path class="st1" d="M336.7,63l7.9-24.1l7.4,24.1H336.7z M352.5,4.8h-16.7l-32.1,90.1h22.7l4.3-13.4h18.3l4.5-12.4l9.4,25.8h21.8
		L352.5,4.8z"/>
	<path class="st1" d="M106.3,63l7.9-24.1l7.4,24.1H106.3z M122,4.8h-16.7L73.2,94.9h22.7l4.3-13.4h18.3l4.4-12.4l9.4,25.8h21.8
		L122,4.8z"/>
</g>
</svg>
